<?xml version="1.0" standalone="no"?>
<!DOCTYPE svg PUBLIC "-//W3C//DTD SVG 20010904//EN"
 "http://www.w3.org/TR/2001/REC-SVG-20010904/DTD/svg10.dtd">
<svg version="1.0" xmlns="http://www.w3.org/2000/svg"
 width="517.000000pt" height="512.000000pt" viewBox="0 0 517.000000 512.000000"
 preserveAspectRatio="xMidYMid meet">
<metadata>
Created by potrace 1.16, written by Peter Selinger 2001-2019
</metadata>
<g transform="translate(0.000000,512.000000) scale(0.100000,-0.100000)"
fill="#000000" stroke="none">
<path d="M2323 4905 c-553 -70 -1036 -312 -1423 -711 -568 -586 -792 -1404
-604 -2204 77 -330 260 -707 459 -946 341 -409 768 -683 1259 -809 220 -56
332 -69 596 -69 264 -1 369 12 594 68 296 75 570 206 828 396 121 89 334 292
425 405 138 171 308 452 301 499 -2 14 -11 22 -28 24 -22 2 -31 -8 -79 -100
-343 -647 -977 -1094 -1708 -1205 -138 -21 -510 -24 -638 -5 -536 80 -996 314
-1360 693 -335 350 -550 790 -621 1274 -25 166 -25 497 -1 654 78 498 288 924
632 1280 547 565 1337 811 2112 656 67 -14 157 -36 200 -50 l78 -24 20 20 20
20 -22 18 c-28 24 -214 75 -368 102 -158 28 -507 35 -672 14z"/>
<path d="M2819 4521 l-29 -29 0 -632 0 -631 25 -24 c23 -24 30 -25 145 -25
l120 0 0 -134 c0 -74 4 -137 9 -141 6 -3 76 58 158 135 l148 140 377 0 377 0
28 24 c28 24 28 25 27 138 -1 62 -2 281 -3 486 l-1 372 -102 0 -103 0 -17 -30
c-10 -17 -34 -38 -55 -46 -98 -41 -195 61 -149 158 41 86 168 91 211 8 l16
-30 99 0 100 0 0 124 c0 123 0 125 -26 145 -26 21 -34 21 -676 21 l-650 0 -29
-29z m867 -536 l16 -25 202 -2 c193 -3 201 -4 201 -23 0 -19 -8 -20 -199 -23
-195 -2 -199 -3 -228 -27 -36 -30 -67 -32 -96 -5 -27 25 -30 85 -5 112 25 28
88 24 109 -7z"/>
<path d="M2025 4167 c-112 -29 -225 -106 -280 -191 -25 -40 -34 -46 -55 -41
-170 36 -313 0 -428 -108 -86 -82 -127 -167 -135 -278 l-5 -62 -69 -22 c-243
-77 -373 -341 -284 -575 20 -51 20 -55 3 -64 -9 -5 -41 -32 -70 -60 -163 -154
-166 -441 -5 -603 26 -27 59 -56 72 -64 24 -15 24 -16 8 -57 -103 -258 53
-555 330 -627 31 -8 80 -15 109 -15 l51 0 5 -77 c6 -97 42 -175 112 -246 100
-101 269 -148 396 -112 10 3 26 -12 44 -41 60 -96 210 -174 331 -174 119 0
255 69 319 163 73 107 70 80 73 695 l2 552 -47 1 c-26 1 -112 2 -190 3 l-144
1 -29 33 -29 32 0 316 c0 197 4 323 10 335 23 42 59 49 250 49 l181 0 -3 468
c-3 459 -4 468 -26 524 -43 107 -134 195 -242 234 -60 21 -192 27 -255 11z
m-180 -403 c14 -9 30 -33 36 -54 9 -31 8 -43 -6 -74 -10 -21 -29 -43 -42 -49
-19 -8 -23 -18 -23 -56 0 -46 1 -47 125 -171 l125 -125 -2 -150 c-3 -142 -4
-150 -23 -150 -19 0 -20 8 -23 140 l-3 141 -124 124 -125 125 0 51 c0 49 -2
53 -34 72 -49 29 -65 84 -40 137 29 62 98 79 159 39z m421 -202 c61 -49 58
-138 -7 -176 l-29 -17 -2 -182 c-3 -174 -4 -182 -23 -182 -19 0 -20 8 -23 183
l-2 183 -26 11 c-14 7 -32 24 -40 39 -39 76 9 159 91 159 23 0 49 -8 61 -18z
m-992 -208 c14 -15 26 -31 26 -35 0 -5 66 -9 148 -9 l147 0 104 -104 c98 -98
114 -126 73 -126 -10 0 -58 41 -107 90 l-90 90 -132 0 -132 0 -16 -30 c-34
-66 -121 -76 -169 -19 -60 71 -15 169 77 169 35 0 50 -6 71 -26z m-77 -383
c17 -11 34 -29 38 -40 6 -20 14 -21 114 -21 l107 0 113 -120 112 -120 180 0
c172 0 179 -1 179 -20 0 -11 -3 -20 -7 -21 -5 0 -89 -2 -188 -5 l-180 -4 -118
120 -118 120 -94 0 c-84 0 -94 -2 -100 -20 -19 -61 -113 -80 -165 -32 -97 87
15 231 127 163z m673 -74 c49 -54 55 -57 99 -57 54 0 76 -12 68 -34 -5 -12
-21 -16 -69 -16 l-63 0 -77 77 c-75 74 -93 106 -65 116 16 5 44 -17 107 -86z
m-301 -351 c15 -8 32 -26 39 -40 l12 -26 210 0 c203 0 210 -1 210 -20 0 -12
-7 -20 -17 -20 -10 -1 -104 0 -210 0 -179 1 -192 0 -197 -18 -13 -39 -55 -67
-103 -67 -38 0 -49 5 -74 33 -80 89 22 213 130 158z m469 -257 c2 -13 -8 -17
-55 -21 l-58 -5 -150 -151 -149 -152 -126 0 c-125 0 -127 0 -138 -25 -6 -13
-25 -31 -43 -40 -90 -47 -182 52 -134 144 32 63 131 65 170 4 l20 -32 117 -1
116 0 144 150 143 150 70 -3 c55 -2 70 -5 73 -18z m17 -206 l0 -71 -213 -221
-214 -221 -48 0 c-44 0 -50 -3 -69 -35 -37 -64 -118 -71 -165 -14 -36 42 -35
89 3 131 25 28 36 33 76 33 42 0 50 -4 79 -38 28 -33 37 -38 68 -35 32 3 57
25 236 213 l202 210 0 56 c0 60 5 71 30 67 12 -3 15 -18 15 -75z m173 -255 c2
-249 3 -257 23 -263 28 -9 59 -63 59 -102 0 -48 -44 -93 -97 -100 -39 -5 -46
-2 -78 30 -26 26 -35 43 -35 69 0 40 31 94 59 103 21 6 21 12 21 259 0 139 3
256 7 260 4 4 14 5 23 4 13 -3 15 -38 18 -260z m-143 -48 c4 -6 -39 -58 -94
-117 -111 -118 -106 -107 -101 -247 2 -53 6 -63 36 -91 44 -42 48 -102 10
-140 -69 -69 -176 -27 -176 69 0 37 5 48 31 70 17 14 35 26 40 26 5 0 9 51 9
113 l0 112 101 108 c94 100 128 123 144 97z"/>
<path d="M4733 3484 c-3 -10 -1 -31 6 -48 113 -290 164 -524 177 -819 5 -96
11 -151 19 -157 18 -15 44 -1 52 28 9 36 -4 267 -23 392 -28 194 -120 519
-170 598 -17 26 -52 29 -61 6z"/>
<path d="M3284 2606 c-615 -163 -839 -919 -409 -1384 l66 -71 -36 -157 c-21
-87 -39 -162 -41 -169 -3 -6 2 -19 9 -29 20 -27 38 -20 226 85 l165 91 88 -12
c140 -20 293 -9 408 29 183 61 344 185 449 345 45 70 99 189 115 259 l6 27
-93 0 -94 0 -26 -67 c-79 -202 -260 -359 -467 -408 -246 -57 -528 42 -676 238
-101 135 -138 245 -137 412 0 90 5 125 27 190 100 309 385 496 707 464 132
-13 295 -86 369 -164 22 -24 29 -25 137 -25 62 0 113 4 113 9 0 19 -76 106
-145 165 -80 68 -222 144 -320 171 -38 11 -112 18 -205 21 -129 4 -155 2 -236
-20z"/>
<path d="M4030 2204 c0 -3 17 -33 37 -66 21 -33 47 -90 59 -126 l22 -65 88 2
c49 1 90 4 93 6 7 7 -48 169 -72 210 l-23 40 -102 3 c-56 1 -102 0 -102 -4z"/>
<path d="M4160 1785 l0 -115 89 0 90 0 7 57 c4 31 3 81 -2 112 l-9 56 -87 3
-88 3 0 -116z"/>
</g>
</svg>
